<mxfile host="app.diagrams.net" modified="2020-12-09T07:44:55.612Z" agent="5.0 (Macintosh; Intel Mac OS X 10_14_6) AppleWebKit/537.36 (KHTML, like Gecko) Chrome/86.0.4240.198 Safari/537.36" etag="_lwSttWNnWsSH8S4VMCT" version="13.10.0" type="github">
  <diagram name="Page-1" id="74e2e168-ea6b-b213-b513-2b3c1d86103e">
    <mxGraphModel dx="1186" dy="796" grid="1" gridSize="10" guides="1" tooltips="1" connect="1" arrows="1" fold="1" page="1" pageScale="1" pageWidth="1100" pageHeight="850" background="#ffffff" math="0" shadow="0">
      <root>
        <mxCell id="0" />
        <mxCell id="1" parent="0" />
        <mxCell id="77e6c97f196da883-1" value="Pool" style="swimlane;html=1;childLayout=stackLayout;startSize=20;rounded=0;shadow=0;labelBackgroundColor=none;strokeWidth=1;fontFamily=Verdana;fontSize=8;align=center;" parent="1" vertex="1">
          <mxGeometry x="130" y="30" width="960" height="750" as="geometry" />
        </mxCell>
        <mxCell id="77e6c97f196da883-2" value="续期" style="swimlane;html=1;startSize=20;" parent="77e6c97f196da883-1" vertex="1">
          <mxGeometry y="20" width="160" height="730" as="geometry" />
        </mxCell>
        <mxCell id="77e6c97f196da883-8" value="发送续期成功MQ" style="rounded=1;whiteSpace=wrap;html=1;shadow=0;labelBackgroundColor=none;strokeWidth=1;fontFamily=Verdana;fontSize=8;align=center;" parent="77e6c97f196da883-2" vertex="1">
          <mxGeometry x="21" y="65" width="100" height="60" as="geometry" />
        </mxCell>
        <mxCell id="77e6c97f196da883-26" style="edgeStyle=orthogonalEdgeStyle;rounded=1;html=1;labelBackgroundColor=none;startArrow=none;startFill=0;startSize=5;endArrow=classicThin;endFill=1;endSize=5;jettySize=auto;orthogonalLoop=1;strokeWidth=1;fontFamily=Verdana;fontSize=8" parent="77e6c97f196da883-1" source="77e6c97f196da883-8" target="77e6c97f196da883-11" edge="1">
          <mxGeometry relative="1" as="geometry" />
        </mxCell>
        <mxCell id="77e6c97f196da883-3" value="分销" style="swimlane;html=1;startSize=20;" parent="77e6c97f196da883-1" vertex="1">
          <mxGeometry x="160" y="20" width="270" height="730" as="geometry" />
        </mxCell>
        <mxCell id="nq81JNtwzJ9UbgavTY5W-2" style="edgeStyle=orthogonalEdgeStyle;rounded=0;orthogonalLoop=1;jettySize=auto;html=1;exitX=0.5;exitY=1;exitDx=0;exitDy=0;entryX=0.5;entryY=0;entryDx=0;entryDy=0;" edge="1" parent="77e6c97f196da883-3" source="77e6c97f196da883-11" target="77e6c97f196da883-9">
          <mxGeometry relative="1" as="geometry" />
        </mxCell>
        <mxCell id="77e6c97f196da883-11" value="消费MQ" style="rounded=1;whiteSpace=wrap;html=1;shadow=0;labelBackgroundColor=none;strokeWidth=1;fontFamily=Verdana;fontSize=8;align=center;" parent="77e6c97f196da883-3" vertex="1">
          <mxGeometry x="70" y="65" width="100" height="60" as="geometry" />
        </mxCell>
        <mxCell id="nq81JNtwzJ9UbgavTY5W-3" style="edgeStyle=orthogonalEdgeStyle;rounded=0;orthogonalLoop=1;jettySize=auto;html=1;exitX=0.5;exitY=1;exitDx=0;exitDy=0;" edge="1" parent="77e6c97f196da883-3" source="77e6c97f196da883-9" target="nq81JNtwzJ9UbgavTY5W-1">
          <mxGeometry relative="1" as="geometry" />
        </mxCell>
        <mxCell id="77e6c97f196da883-9" value="分销订单/订单状态1/3/4等校验" style="rounded=1;whiteSpace=wrap;html=1;shadow=0;labelBackgroundColor=none;strokeWidth=1;fontFamily=Verdana;fontSize=8;align=center;" parent="77e6c97f196da883-3" vertex="1">
          <mxGeometry x="70" y="170" width="100" height="60" as="geometry" />
        </mxCell>
        <mxCell id="nq81JNtwzJ9UbgavTY5W-1" value="长短险" style="rhombus;whiteSpace=wrap;html=1;" vertex="1" parent="77e6c97f196da883-3">
          <mxGeometry x="75" y="270" width="90" height="80" as="geometry" />
        </mxCell>
        <mxCell id="nq81JNtwzJ9UbgavTY5W-17" style="edgeStyle=orthogonalEdgeStyle;rounded=0;orthogonalLoop=1;jettySize=auto;html=1;exitX=0.5;exitY=1;exitDx=0;exitDy=0;" edge="1" parent="77e6c97f196da883-3" source="nq81JNtwzJ9UbgavTY5W-13" target="nq81JNtwzJ9UbgavTY5W-14">
          <mxGeometry relative="1" as="geometry" />
        </mxCell>
        <mxCell id="nq81JNtwzJ9UbgavTY5W-13" value="更新订单续期信息" style="rounded=1;whiteSpace=wrap;html=1;shadow=0;labelBackgroundColor=none;strokeWidth=1;fontFamily=Verdana;fontSize=8;align=center;" vertex="1" parent="77e6c97f196da883-3">
          <mxGeometry x="20" y="530" width="100" height="60" as="geometry" />
        </mxCell>
        <mxCell id="nq81JNtwzJ9UbgavTY5W-14" value="结束" style="strokeWidth=2;html=1;shape=mxgraph.flowchart.terminator;whiteSpace=wrap;" vertex="1" parent="77e6c97f196da883-3">
          <mxGeometry x="20" y="630" width="100" height="60" as="geometry" />
        </mxCell>
        <mxCell id="nq81JNtwzJ9UbgavTY5W-25" value="是" style="edgeStyle=orthogonalEdgeStyle;rounded=0;orthogonalLoop=1;jettySize=auto;html=1;exitX=0;exitY=0.5;exitDx=0;exitDy=0;entryX=1;entryY=0.5;entryDx=0;entryDy=0;" edge="1" parent="77e6c97f196da883-3" source="nq81JNtwzJ9UbgavTY5W-22" target="nq81JNtwzJ9UbgavTY5W-13">
          <mxGeometry relative="1" as="geometry" />
        </mxCell>
        <mxCell id="nq81JNtwzJ9UbgavTY5W-30" style="edgeStyle=orthogonalEdgeStyle;rounded=0;orthogonalLoop=1;jettySize=auto;html=1;exitX=0.5;exitY=1;exitDx=0;exitDy=0;entryX=1;entryY=0.5;entryDx=0;entryDy=0;" edge="1" parent="77e6c97f196da883-3" source="nq81JNtwzJ9UbgavTY5W-22" target="nq81JNtwzJ9UbgavTY5W-28">
          <mxGeometry relative="1" as="geometry" />
        </mxCell>
        <mxCell id="nq81JNtwzJ9UbgavTY5W-35" value="否" style="edgeLabel;html=1;align=center;verticalAlign=middle;resizable=0;points=[];" vertex="1" connectable="0" parent="nq81JNtwzJ9UbgavTY5W-30">
          <mxGeometry x="-0.1138" y="-3" relative="1" as="geometry">
            <mxPoint as="offset" />
          </mxGeometry>
        </mxCell>
        <mxCell id="nq81JNtwzJ9UbgavTY5W-22" value="成功" style="rhombus;whiteSpace=wrap;html=1;" vertex="1" parent="77e6c97f196da883-3">
          <mxGeometry x="211" y="450" width="25" height="80" as="geometry" />
        </mxCell>
        <mxCell id="nq81JNtwzJ9UbgavTY5W-33" style="edgeStyle=orthogonalEdgeStyle;rounded=0;orthogonalLoop=1;jettySize=auto;html=1;exitX=0.5;exitY=1;exitDx=0;exitDy=0;entryX=1;entryY=0.5;entryDx=0;entryDy=0;" edge="1" parent="77e6c97f196da883-3" source="nq81JNtwzJ9UbgavTY5W-23" target="nq81JNtwzJ9UbgavTY5W-28">
          <mxGeometry relative="1" as="geometry" />
        </mxCell>
        <mxCell id="nq81JNtwzJ9UbgavTY5W-34" value="否" style="edgeLabel;html=1;align=center;verticalAlign=middle;resizable=0;points=[];" vertex="1" connectable="0" parent="nq81JNtwzJ9UbgavTY5W-33">
          <mxGeometry x="-0.5091" y="-2" relative="1" as="geometry">
            <mxPoint as="offset" />
          </mxGeometry>
        </mxCell>
        <mxCell id="nq81JNtwzJ9UbgavTY5W-23" value="成功" style="rhombus;whiteSpace=wrap;html=1;" vertex="1" parent="77e6c97f196da883-3">
          <mxGeometry x="240" y="520" width="20" height="80" as="geometry" />
        </mxCell>
        <mxCell id="nq81JNtwzJ9UbgavTY5W-29" style="edgeStyle=orthogonalEdgeStyle;rounded=0;orthogonalLoop=1;jettySize=auto;html=1;exitX=0;exitY=0.5;exitDx=0;exitDy=0;entryX=1;entryY=0.5;entryDx=0;entryDy=0;entryPerimeter=0;" edge="1" parent="77e6c97f196da883-3" source="nq81JNtwzJ9UbgavTY5W-28" target="nq81JNtwzJ9UbgavTY5W-14">
          <mxGeometry relative="1" as="geometry" />
        </mxCell>
        <mxCell id="nq81JNtwzJ9UbgavTY5W-28" value="记录error" style="rounded=1;whiteSpace=wrap;html=1;shadow=0;labelBackgroundColor=none;strokeWidth=1;fontFamily=Verdana;fontSize=8;align=center;" vertex="1" parent="77e6c97f196da883-3">
          <mxGeometry x="150" y="630" width="50" height="60" as="geometry" />
        </mxCell>
        <mxCell id="77e6c97f196da883-4" value="核心订单" style="swimlane;html=1;startSize=20;" parent="77e6c97f196da883-1" vertex="1">
          <mxGeometry x="430" y="20" width="260" height="730" as="geometry" />
        </mxCell>
        <mxCell id="77e6c97f196da883-12" value="长险续费详情列表" style="rounded=1;whiteSpace=wrap;html=1;shadow=0;labelBackgroundColor=none;strokeWidth=1;fontFamily=Verdana;fontSize=8;align=center;" parent="77e6c97f196da883-4" vertex="1">
          <mxGeometry x="80" y="280" width="100" height="60" as="geometry" />
        </mxCell>
        <mxCell id="nq81JNtwzJ9UbgavTY5W-5" value="短险续费详情列表" style="rounded=1;whiteSpace=wrap;html=1;shadow=0;labelBackgroundColor=none;strokeWidth=1;fontFamily=Verdana;fontSize=8;align=center;" vertex="1" parent="77e6c97f196da883-4">
          <mxGeometry x="80" y="380" width="100" height="60" as="geometry" />
        </mxCell>
        <mxCell id="77e6c97f196da883-6" value="Lane 5" style="swimlane;html=1;startSize=20;" parent="77e6c97f196da883-1" vertex="1">
          <mxGeometry x="690" y="20" width="160" height="730" as="geometry">
            <mxRectangle x="690" y="20" width="30" height="730" as="alternateBounds" />
          </mxGeometry>
        </mxCell>
        <mxCell id="nq81JNtwzJ9UbgavTY5W-4" style="edgeStyle=orthogonalEdgeStyle;rounded=0;orthogonalLoop=1;jettySize=auto;html=1;exitX=1;exitY=0.5;exitDx=0;exitDy=0;entryX=0;entryY=0.5;entryDx=0;entryDy=0;" edge="1" parent="77e6c97f196da883-1" source="nq81JNtwzJ9UbgavTY5W-1" target="77e6c97f196da883-12">
          <mxGeometry relative="1" as="geometry" />
        </mxCell>
        <mxCell id="nq81JNtwzJ9UbgavTY5W-19" value="长险" style="edgeLabel;html=1;align=center;verticalAlign=middle;resizable=0;points=[];" vertex="1" connectable="0" parent="nq81JNtwzJ9UbgavTY5W-4">
          <mxGeometry x="-0.0844" y="-1" relative="1" as="geometry">
            <mxPoint as="offset" />
          </mxGeometry>
        </mxCell>
        <mxCell id="nq81JNtwzJ9UbgavTY5W-6" style="edgeStyle=orthogonalEdgeStyle;rounded=0;orthogonalLoop=1;jettySize=auto;html=1;exitX=0.5;exitY=1;exitDx=0;exitDy=0;entryX=0;entryY=0.5;entryDx=0;entryDy=0;" edge="1" parent="77e6c97f196da883-1" source="nq81JNtwzJ9UbgavTY5W-1" target="nq81JNtwzJ9UbgavTY5W-5">
          <mxGeometry relative="1" as="geometry" />
        </mxCell>
        <mxCell id="nq81JNtwzJ9UbgavTY5W-20" value="短险" style="edgeLabel;html=1;align=center;verticalAlign=middle;resizable=0;points=[];" vertex="1" connectable="0" parent="nq81JNtwzJ9UbgavTY5W-6">
          <mxGeometry x="0.0606" y="-1" relative="1" as="geometry">
            <mxPoint as="offset" />
          </mxGeometry>
        </mxCell>
        <mxCell id="nq81JNtwzJ9UbgavTY5W-24" style="edgeStyle=orthogonalEdgeStyle;rounded=0;orthogonalLoop=1;jettySize=auto;html=1;exitX=1;exitY=0.5;exitDx=0;exitDy=0;entryX=1;entryY=0.5;entryDx=0;entryDy=0;" edge="1" parent="77e6c97f196da883-1" source="77e6c97f196da883-12" target="nq81JNtwzJ9UbgavTY5W-22">
          <mxGeometry relative="1" as="geometry">
            <Array as="points">
              <mxPoint x="640" y="330" />
              <mxPoint x="640" y="510" />
            </Array>
          </mxGeometry>
        </mxCell>
        <mxCell id="nq81JNtwzJ9UbgavTY5W-31" style="edgeStyle=orthogonalEdgeStyle;rounded=0;orthogonalLoop=1;jettySize=auto;html=1;exitX=1;exitY=0.5;exitDx=0;exitDy=0;entryX=1;entryY=0.5;entryDx=0;entryDy=0;" edge="1" parent="77e6c97f196da883-1" source="nq81JNtwzJ9UbgavTY5W-5" target="nq81JNtwzJ9UbgavTY5W-23">
          <mxGeometry relative="1" as="geometry" />
        </mxCell>
        <mxCell id="nq81JNtwzJ9UbgavTY5W-32" style="edgeStyle=orthogonalEdgeStyle;rounded=0;orthogonalLoop=1;jettySize=auto;html=1;exitX=0;exitY=0.5;exitDx=0;exitDy=0;" edge="1" parent="1" source="nq81JNtwzJ9UbgavTY5W-23">
          <mxGeometry relative="1" as="geometry">
            <mxPoint x="410" y="610" as="targetPoint" />
          </mxGeometry>
        </mxCell>
      </root>
    </mxGraphModel>
  </diagram>
</mxfile>
